<svg id="visual" viewBox="0 0 900 900" width="900" height="900" xmlns="http://www.w3.org/2000/svg" xmlns:xlink="http://www.w3.org/1999/xlink" version="1.1"><rect x="0" y="0" width="900" height="900" fill="white"></rect><defs><linearGradient id="grad1_0" x1="0%" y1="100%" x2="100%" y2="0%"><stop offset="30%" stop-color="#001220" stop-opacity="1"></stop><stop offset="70%" stop-color="#001220" stop-opacity="1"></stop></linearGradient></defs><defs><linearGradient id="grad2_0" x1="0%" y1="100%" x2="100%" y2="0%"><stop offset="30%" stop-color="#001220" stop-opacity="1"></stop><stop offset="70%" stop-color="#001220" stop-opacity="1"></stop></linearGradient></defs><g transform="translate(900, 900)"><path d="M-636.4 0C-621 -113.5 -605.7 -227.1 -551.1 -318.2C-496.6 -409.3 -402.9 -478.1 -304.5 -527.4C-206.1 -576.7 -103.1 -606.6 0 -636.4L0 0Z" fill="#bae8e8"></path></g><g transform="translate(0, 0)"><path d="M636.4 0C621.2 113.8 605.9 227.5 551.1 318.2C496.3 408.9 402 476.5 303.5 525.7C205 574.9 102.5 605.6 0 636.4L0 0Z" fill="#bae8e8"></path></g></svg>